<?xml version="1.0" encoding="UTF-8" standalone="no"?>
<!-- Created with Inkscape (http://www.inkscape.org/) -->

<svg
   xmlns:dc="http://purl.org/dc/elements/1.1/"
   xmlns:cc="http://creativecommons.org/ns#"
   xmlns:rdf="http://www.w3.org/1999/02/22-rdf-syntax-ns#"
   xmlns:svg="http://www.w3.org/2000/svg"
   xmlns="http://www.w3.org/2000/svg"
   xmlns:sodipodi="http://sodipodi.sourceforge.net/DTD/sodipodi-0.dtd"
   xmlns:inkscape="http://www.inkscape.org/namespaces/inkscape"
   width="200"
   height="200"
   id="svg2"
   version="1.1"
   inkscape:version="0.48.4 r9939"
   sodipodi:docname="clamp-open.svg">
  <defs
     id="defs4" />
  <sodipodi:namedview
     id="base"
     pagecolor="#ffffff"
     bordercolor="#666666"
     borderopacity="1.0"
     inkscape:pageopacity="0.0"
     inkscape:pageshadow="2"
     inkscape:zoom="1.8612519"
     inkscape:cx="100.49574"
     inkscape:cy="55.563843"
     inkscape:document-units="px"
     inkscape:current-layer="layer3"
     showgrid="false"
     inkscape:window-width="1218"
     inkscape:window-height="697"
     inkscape:window-x="-8"
     inkscape:window-y="-8"
     inkscape:window-maximized="1" />
  <metadata
     id="metadata7">
    <rdf:RDF>
      <cc:Work
         rdf:about="">
        <dc:format>image/svg+xml</dc:format>
        <dc:type
           rdf:resource="http://purl.org/dc/dcmitype/StillImage" />
        <dc:title></dc:title>
      </cc:Work>
    </rdf:RDF>
  </metadata>
  <g
     inkscape:groupmode="layer"
     id="layer3"
     inkscape:label="Ebene"
     style="display:inline">
    <g
       transform="translate(0,-852.36218)"
       id="g3837">
      <g
         style="stroke:#2e3436;stroke-width:23.72861862"
         transform="matrix(0.12642961,0,0,0.12642961,62.077575,886.54468)"
         id="g3817">
        <path
           inkscape:connector-curvature="0"
           style="fill:#ef2929;stroke:#2e3436;stroke-width:23.72861862"
           d="m 281.4375,-188.4375 c -57.32405,-0.35022 -137.125,24.97474 -137.125,114.28125 l 0,321.09375 c -4.84297,36.67853 1.48445,48.17501 -61.4375,215.53125 -38.493646,76.55301 -57.345727,154.17942 -61.40625,262.125 -2.035068,54.10057 -2.564722,106.60951 -3.3125,153.1875 -73.697733,25.99943 -126.5,96.24841 -126.5,178.84375 0,104.7172 84.876544,189.625 189.59375,189.625 104.71711,0 189.625,-84.9078 189.625,-189.625 0,-76.85214 -45.74179,-143.00599 -111.46875,-172.78125 L 157.75,668.5 248.0625,432.25 c 15.87879,-65.74446 86.6493,-140.61959 -23.78125,-185.3125 l 0,-246.8125 57.15625,-62.84375 0,-125.71875 z"
           id="rect3794" />
        <path
           id="path3815"
           d="m 318.46034,-188.4375 c 57.32406,-0.35022 137.12501,24.97474 137.12501,114.28125 l 0,321.09375 c 4.84297,36.67853 -1.48445,48.17501 61.4375,215.53125 38.49364,76.55301 57.34572,154.17942 61.40624,262.125 2.03507,54.10057 2.56472,106.60951 3.3125,153.1875 73.69774,25.99943 126.5,96.24841 126.5,178.84375 0,104.7172 -84.87654,189.625 -189.59374,189.625 -104.71711,0 -189.625,-84.9078 -189.625,-189.625 0,-76.85214 45.74179,-143.00599 111.46875,-172.78125 L 442.14785,668.5 351.83535,432.25 C 335.95656,366.50554 265.18604,291.63041 375.6166,246.9375 l 0,-246.8125 -57.15626,-62.84375 0,-125.71875 z"
           style="fill:#ef2929;stroke:#2e3436;stroke-width:23.72861862"
           inkscape:connector-curvature="0" />
      </g>
    </g>
  </g>
</svg>
