<?xml version="1.0" encoding="UTF-8" standalone="no"?>
<!-- Created with Inkscape (http://www.inkscape.org/) -->

<svg
   xmlns:dc="http://purl.org/dc/elements/1.1/"
   xmlns:cc="http://creativecommons.org/ns#"
   xmlns:rdf="http://www.w3.org/1999/02/22-rdf-syntax-ns#"
   xmlns:svg="http://www.w3.org/2000/svg"
   xmlns="http://www.w3.org/2000/svg"
   xmlns:sodipodi="http://sodipodi.sourceforge.net/DTD/sodipodi-0.dtd"
   xmlns:inkscape="http://www.inkscape.org/namespaces/inkscape"
   width="200"
   height="200"
   id="svg2"
   version="1.1"
   inkscape:version="0.48.4 r9939"
   sodipodi:docname="clamp.svg">
  <defs
     id="defs4" />
  <sodipodi:namedview
     id="base"
     pagecolor="#ffffff"
     bordercolor="#666666"
     borderopacity="1.0"
     inkscape:pageopacity="0.0"
     inkscape:pageshadow="2"
     inkscape:zoom="1.8612519"
     inkscape:cx="100.49574"
     inkscape:cy="55.563843"
     inkscape:document-units="px"
     inkscape:current-layer="layer1"
     showgrid="false"
     inkscape:window-width="1218"
     inkscape:window-height="697"
     inkscape:window-x="-8"
     inkscape:window-y="-8"
     inkscape:window-maximized="1" />
  <metadata
     id="metadata7">
    <rdf:RDF>
      <cc:Work
         rdf:about="">
        <dc:format>image/svg+xml</dc:format>
        <dc:type
           rdf:resource="http://purl.org/dc/dcmitype/StillImage" />
        <dc:title></dc:title>
      </cc:Work>
    </rdf:RDF>
  </metadata>
  <g
     inkscape:label="Ebene 1"
     inkscape:groupmode="layer"
     id="layer1"
     transform="translate(0,-852.36218)">
    <path
       style="fill:none;stroke:#000000;stroke-width:1px;stroke-linecap:butt;stroke-linejoin:miter;stroke-opacity:1"
       d="M 0,-16.209246 z"
       id="path3011"
       inkscape:connector-curvature="0" />
    <g
       id="g3022"
       style="fill:#4e9a06;stroke:#2e3436;stroke-width:15.81907909"
       transform="matrix(0.12642961,0,0,0.12642961,61.971168,892.31237)">
      <path
         id="path3009"
         d="M -21.153312,-13.34375 C -78.477365,-13.693975 -158.27831,11.630988 -158.27831,100.9375 l 0,294.28125 -137.1875,302.84375 c -18.77263,39.90794 -6.43767,63.68074 17.15625,80 L -82.559562,943.5 c -7.360399,19.88694 -11.375,41.39826 -11.375,63.8438 0,101.5832 82.354236,183.9374 183.9375,183.9374 101.583262,0 183.937502,-82.3542 183.937502,-183.9374 0,-101.58336 -82.35424,-183.93755 -183.937502,-183.93755 -34.115978,0 -66.05038,9.31366 -93.4375004,25.5 L -146.90331,715.21875 -46.903312,523.78125 166.40919,700.375 c -2.31751,5.75006 -3.59375,12.01396 -3.59375,18.59375 0,27.51214 22.30037,49.84375 49.8125,49.84375 27.51214,0 49.8125,-22.33161 49.8125,-49.84375 0,-27.51213 -22.30036,-49.8125 -49.8125,-49.8125 -3.98884,0 -7.876,0.48945 -11.59375,1.375 L -35.465812,469.5 l 5.71875,-40 -48.5625,-68.5625 0,-185.71875 57.15625,-62.84375 0,-125.71875 z"
         style="fill:#4e9a06;stroke:#2e3436;stroke-width:15.8190794;stroke-linecap:butt;stroke-linejoin:miter;stroke-opacity:1"
         inkscape:connector-curvature="0" />
      <path
         inkscape:connector-curvature="0"
         style="fill:#4e9a06;stroke:#2e3436;stroke-width:15.8190794;stroke-linecap:butt;stroke-linejoin:miter;stroke-opacity:1"
         d="m 640.93467,-13.34375 c 57.32405,-0.350225 137.125,24.974738 137.125,114.28125 l 0,294.28125 137.1875,302.84375 c 18.77263,39.90794 6.43767,63.68074 -17.15625,80 L 702.34092,943.5 c 7.3604,19.88694 11.375,41.39826 11.375,63.8438 0,101.5832 -82.35423,183.9374 -183.9375,183.9374 -101.58326,0 -183.9375,-82.3542 -183.9375,-183.9374 0,-101.58336 82.35424,-183.93755 183.9375,-183.93755 34.11598,0 66.05038,9.31366 93.4375,25.5 l 143.46875,-133.6875 -100,-191.4375 -213.3125,176.59375 c 2.31751,5.75006 3.59375,12.01396 3.59375,18.59375 0,27.51214 -22.30037,49.84375 -49.8125,49.84375 -27.51214,0 -49.8125,-22.33161 -49.8125,-49.84375 0,-27.51213 22.30036,-49.8125 49.8125,-49.8125 3.98884,0 7.876,0.48945 11.59375,1.375 l 236.5,-201.03125 -5.71875,-40 48.5625,-68.5625 0,-185.71875 -57.15625,-62.84375 0,-125.71875 z"
         id="path3020" />
    </g>
  </g>
</svg>
